<svg width="42" height="42" viewBox="0 0 42 42" fill="none" xmlns="http://www.w3.org/2000/svg">
<g clip-path="url(#clip0_67_285)">
<path fill-rule="evenodd" clip-rule="evenodd" d="M21 0.882812C32.3142 0.882812 41.5 10.0686 41.5 21.3828C41.5 32.6971 32.3142 41.8828 21 41.8828C9.68576 41.8828 0.5 32.6971 0.5 21.3828C0.5 10.0686 9.68576 0.882812 21 0.882812ZM14.5908 32.9037V16.8944H9.26847V32.9037H14.5908ZM33.7791 32.9037V23.7231C33.7791 18.8056 31.1536 16.518 27.6524 16.518C24.8293 16.518 23.5647 18.0706 22.8566 19.1611V16.8944H17.5357C17.6062 18.3965 17.5357 32.9037 17.5357 32.9037H22.8565V23.963C22.8565 23.4845 22.891 23.0061 23.032 22.6641C23.416 21.7083 24.2922 20.7182 25.7622 20.7182C27.6868 20.7182 28.4579 22.1869 28.4579 24.3381V32.9037H33.7791ZM11.9656 9.1749C10.1446 9.1749 8.95489 10.3721 8.95489 11.9412C8.95489 13.4773 10.1084 14.7074 11.8951 14.7074H11.9295C13.7853 14.7074 14.9404 13.4773 14.9404 11.9412C14.906 10.3721 13.7854 9.1749 11.9656 9.1749Z" fill="white"/>
</g>
<defs>
<clipPath id="clip0_67_285">
<rect width="41" height="41" fill="white" transform="translate(0.5 0.882812)"/>
</clipPath>
</defs>
</svg>
