<svg width="42" height="42" viewBox="0 0 42 42" fill="none" xmlns="http://www.w3.org/2000/svg">
<g clip-path="url(#clip0_67_281)">
<path fill-rule="evenodd" clip-rule="evenodd" d="M20.9217 41.8827L20.94 41.8827H20.9337L20.9217 41.8827ZM21.0663 41.8827H21.06L21.0783 41.8827L21.0663 41.8827ZM20.8591 41.8823L20.8788 41.8824H20.8675L20.8591 41.8823ZM21.1325 41.8824H21.1212L21.1409 41.8823L21.1325 41.8824ZM20.7987 41.8819L20.8119 41.8819L20.8013 41.8819H20.7987ZM21.1987 41.8819L21.1881 41.8819L21.2013 41.8819H21.1987ZM21.2648 41.8811L21.2602 41.8812L21.278 41.881L21.2648 41.8811ZM20.722 41.881L20.7398 41.8812L20.7352 41.8811L20.722 41.881ZM21.3309 41.8802L21.3201 41.8803L21.3421 41.88L21.3309 41.8802ZM20.6579 41.88L20.6799 41.8803L20.6691 41.8802L20.6579 41.88ZM21.3969 41.8791L21.3823 41.8793L21.4026 41.8789L21.3969 41.8791ZM20.5974 41.8789L20.6177 41.8793L20.6031 41.8791L20.5974 41.8789ZM20.5223 41.8774L20.5404 41.8778L20.5371 41.8777L20.5223 41.8774ZM21.4629 41.8777L21.4596 41.8778L21.4777 41.8774L21.4629 41.8777ZM20.4565 41.8757L20.4813 41.8763L20.4712 41.8761L20.4565 41.8757ZM21.5288 41.8761L21.5187 41.8763L21.5435 41.8757L21.5288 41.8761ZM21.5947 41.8743L21.5786 41.8748L21.6039 41.8741L21.5947 41.8743ZM20.3961 41.8741L20.4214 41.8748L20.4053 41.8743L20.3961 41.8741ZM20.3385 41.8723L20.3565 41.8729L20.3395 41.8723L20.324 41.8718L20.3385 41.8723ZM21.6605 41.8723L21.6435 41.8729L21.6615 41.8723L21.676 41.8718L21.6605 41.8723ZM21.7262 41.8702L21.7173 41.8705L21.7449 41.8695L21.7262 41.8702ZM20.2551 41.8695L20.2827 41.8705L20.2738 41.8702L20.2551 41.8695ZM20.1951 41.8673L20.2241 41.8683L20.208 41.8678L20.1951 41.8673ZM21.792 41.8678L21.7759 41.8683L21.8049 41.8673L21.792 41.8678ZM20.1363 41.8649L20.1646 41.8661L20.1424 41.8652L20.1363 41.8649ZM21.8576 41.8652L21.8354 41.8661L21.8637 41.8649L21.8576 41.8652ZM20.0538 41.8613L20.0842 41.8626L20.0768 41.8624L20.0538 41.8613ZM21.9232 41.8624L21.9158 41.8626L21.9462 41.8613L21.9232 41.8624ZM19.9946 41.8586L20.0262 41.86L20.0113 41.8594L19.9946 41.8586ZM21.9887 41.8594L21.9738 41.86L22.0054 41.8586L21.9887 41.8594ZM19.9363 41.8556L19.9681 41.8572L19.9458 41.8561L19.9363 41.8556ZM22.0542 41.8561L22.0319 41.8572L22.0637 41.8556L22.0542 41.8561ZM22.1197 41.8527L22.0907 41.8542L22.1164 41.8529L22.1467 41.8512L22.1197 41.8527ZM19.8836 41.8529L19.9093 41.8542L19.8803 41.8527L19.8533 41.8512L19.8836 41.8529ZM22.1851 41.849L22.1723 41.8497L22.2048 41.8479L22.1851 41.849ZM19.7952 41.8479L19.8277 41.8497L19.8149 41.849L19.7952 41.8479ZM19.7374 41.8445L19.7698 41.8464L19.7496 41.8453L19.7374 41.8445ZM22.2504 41.8453L22.2302 41.8464L22.2626 41.8445L22.2504 41.8453ZM19.6822 41.841L19.7115 41.8429L19.6842 41.8412L19.6569 41.8394L19.6822 41.841ZM22.3158 41.8412L22.2885 41.8429L22.3178 41.841L22.3432 41.8394L22.3158 41.8412ZM22.3809 41.8369L22.3712 41.8376L22.4022 41.8355L22.3809 41.8369ZM19.5978 41.8355L19.6288 41.8376L19.6191 41.8369L19.5978 41.8355ZM19.5401 41.8315L19.5705 41.8336L19.5539 41.8325L19.5401 41.8315ZM22.4461 41.8325L22.4295 41.8336L22.4599 41.8315L22.4461 41.8325ZM19.4825 41.8274L19.5105 41.8294L19.4888 41.8279L19.4825 41.8274ZM22.5112 41.8279L22.4895 41.8294L22.5175 41.8274L22.5112 41.8279ZM19.4051 41.8216L19.4296 41.8234L19.4237 41.823L19.4051 41.8216ZM22.5763 41.823L22.5704 41.8234L22.5949 41.8216L22.5763 41.823ZM22.6413 41.818L22.6296 41.8188L22.6545 41.8168L22.6413 41.818ZM19.3455 41.8168L19.3704 41.8188L19.3587 41.818L19.3455 41.8168ZM19.2874 41.8121L19.3086 41.8139L19.2937 41.8127L19.2874 41.8121ZM22.7063 41.8127L22.6914 41.8139L22.7125 41.8121L22.7063 41.8127ZM19.2235 41.8067L19.2299 41.8073L19.2288 41.8072L19.2235 41.8067ZM22.7712 41.8072L22.7701 41.8073L22.7765 41.8067L22.7712 41.8072ZM22.836 41.8015L22.8303 41.802L22.8448 41.8007L22.836 41.8015ZM19.1552 41.8007L19.1697 41.802L19.164 41.8015L19.1552 41.8007ZM19.0952 41.7953L19.106 41.7963L19.0993 41.7957L19.0952 41.7953ZM22.9007 41.7957L22.894 41.7963L22.9048 41.7953L22.9007 41.7957ZM17.7969 41.6335C8.0018 40.094 0.5 31.6075 0.5 21.3828C0.5 10.0686 9.68576 0.882812 21 0.882812C32.3142 0.882812 41.5 10.0686 41.5 21.3828C41.5 31.6075 33.9982 40.094 24.2031 41.6335V27.3086H28.9798L29.8887 21.3828H24.2031V17.5374C24.2031 15.9162 24.9973 14.3359 27.5439 14.3359H30.1289V9.29102C30.1289 9.29102 27.7829 8.89063 25.54 8.89063C20.8574 8.89063 17.7969 11.7286 17.7969 16.8664V21.3828H12.5918V27.3086H17.7969V41.6335Z" fill="white"/>
</g>
<defs>
<clipPath id="clip0_67_281">
<rect width="41" height="41" fill="white" transform="translate(0.5 0.882812)"/>
</clipPath>
</defs>
</svg>
