<svg width="42" height="42" viewBox="0 0 42 42" fill="none" xmlns="http://www.w3.org/2000/svg">
<g clip-path="url(#clip0_67_283)">
<path fill-rule="evenodd" clip-rule="evenodd" d="M21 0.882812C32.3142 0.882812 41.5 10.0686 41.5 21.3828C41.5 32.6971 32.3142 41.8828 21 41.8828C9.68576 41.8828 0.5 32.6971 0.5 21.3828C0.5 10.0686 9.68576 0.882812 21 0.882812ZM21 8.57031C17.5204 8.57031 17.084 8.58505 15.7174 8.64743C14.3537 8.70965 13.4223 8.92626 12.6073 9.24297C11.7647 9.57041 11.0502 10.0085 10.3379 10.7208C9.62562 11.4331 9.18752 12.1476 8.86008 12.9901C8.54337 13.8051 8.32684 14.7365 8.26453 16.1002C8.20223 17.4668 8.1875 17.9032 8.1875 21.3828C8.1875 24.8624 8.20223 25.2988 8.26453 26.6654C8.32684 28.0291 8.54337 28.9605 8.86008 29.7755C9.18752 30.618 9.62562 31.3325 10.3379 32.0449C11.0502 32.7572 11.7647 33.1953 12.6073 33.5227C13.4223 33.8394 14.3537 34.056 15.7174 34.1182C17.084 34.1806 17.5204 34.1953 21 34.1953C24.4796 34.1953 24.916 34.1806 26.2826 34.1182C27.6463 34.056 28.5777 33.8394 29.3927 33.5227C30.2352 33.1953 30.9497 32.7572 31.6621 32.0449C32.3744 31.3325 32.8125 30.618 33.1399 29.7755C33.4566 28.9605 33.6732 28.0291 33.7354 26.6654C33.7978 25.2988 33.8125 24.8624 33.8125 21.3828C33.8125 17.9032 33.7978 17.4668 33.7354 16.1002C33.6732 14.7365 33.4566 13.8051 33.1399 12.9901C32.8125 12.1476 32.3744 11.4331 31.6621 10.7208C30.9497 10.0085 30.2352 9.57041 29.3927 9.24297C28.5777 8.92626 27.6463 8.70965 26.2826 8.64743C24.916 8.58505 24.4796 8.57031 21 8.57031ZM21 10.8789C24.4211 10.8789 24.8263 10.8919 26.1774 10.9536C27.4266 11.0106 28.1049 11.2193 28.5564 11.3947C29.1545 11.6271 29.5813 11.9048 30.0296 12.3532C30.478 12.8015 30.7557 13.2284 30.9881 13.8264C31.1635 14.2779 31.3723 14.9562 31.4292 16.2054C31.4909 17.5565 31.5039 17.9617 31.5039 21.3828C31.5039 24.8039 31.4909 25.2091 31.4292 26.5602C31.3723 27.8094 31.1635 28.4877 30.9881 28.9392C30.7557 29.5373 30.478 29.9641 30.0296 30.4124C29.5813 30.8609 29.1545 31.1385 28.5564 31.3709C28.1049 31.5463 27.4266 31.7551 26.1774 31.812C24.8265 31.8737 24.4213 31.8867 21 31.8867C17.5787 31.8867 17.1735 31.8737 15.8226 31.812C14.5734 31.7551 13.8951 31.5463 13.4436 31.3709C12.8455 31.1385 12.4187 30.8609 11.9703 30.4124C11.522 29.9641 11.2443 29.5373 11.0119 28.9392C10.8365 28.4877 10.6277 27.8094 10.5707 26.5602C10.509 25.2091 10.4961 24.8039 10.4961 21.3828C10.4961 17.9617 10.509 17.5565 10.5707 16.2054C10.6277 14.9562 10.8365 14.2779 11.0119 13.8264C11.2443 13.2284 11.522 12.8015 11.9703 12.3532C12.4187 11.9048 12.8455 11.6271 13.4436 11.3947C13.8951 11.2193 14.5734 11.0106 15.8226 10.9536C17.1737 10.8919 17.5789 10.8789 21 10.8789ZM21 14.8034C17.3663 14.8034 14.4206 17.7491 14.4206 21.3828C14.4206 25.0165 17.3663 27.9622 21 27.9622C24.6337 27.9622 27.5794 25.0165 27.5794 21.3828C27.5794 17.7491 24.6337 14.8034 21 14.8034ZM21 25.6536C18.6413 25.6536 16.7292 23.7415 16.7292 21.3828C16.7292 19.0241 18.6413 17.112 21 17.112C23.3587 17.112 25.2708 19.0241 25.2708 21.3828C25.2708 23.7415 23.3587 25.6536 21 25.6536ZM29.3769 14.5435C29.3769 15.3926 28.6885 16.0809 27.8393 16.0809C26.9902 16.0809 26.3019 15.3926 26.3019 14.5435C26.3019 13.6944 26.9902 13.006 27.8393 13.006C28.6885 13.006 29.3769 13.6944 29.3769 14.5435Z" fill="white"/>
</g>
<defs>
<clipPath id="clip0_67_283">
<rect width="41" height="41" fill="white" transform="translate(0.5 0.882812)"/>
</clipPath>
</defs>
</svg>
